<?xml version="1.0" encoding="UTF-8"?>
<svg width="468px" height="168px" viewBox="0 0 468 168" version="1.1" xmlns="http://www.w3.org/2000/svg" xmlns:xlink="http://www.w3.org/1999/xlink">
    <!-- Generator: Sketch 58 (84663) - https://sketch.com -->
    <title>Group 3 Copy 2</title>
    <desc>Created with Sketch.</desc>
    <g id="Page-1" stroke="none" stroke-width="1" fill="none" fill-rule="evenodd">
        <g id="Group-3-Copy-2" transform="translate(-8.000000, -23.000000)">
            <path d="M85.6445312,95.5 L85.6445312,25.0410156 L64.5019531,25.0410156 L47.4609375,68.1074219 L46.5332031,68.1074219 L29.4433594,25.0410156 L8.30078125,25.0410156 L8.30078125,95.5 L24.8535156,95.5 L24.8535156,51.0175781 L25.7324219,51.0175781 L41.4550781,90.0800781 L52.5390625,90.0800781 L68.2128906,51.0175781 L69.0917969,51.0175781 L69.0917969,95.5 L85.6445312,95.5 Z M147.216797,95.5 L166.748047,95.5 L143.066406,25.0410156 L121.142578,25.0410156 L97.5097656,95.5 L115.283203,95.5 L119.824219,80.0214844 L142.822266,80.0214844 L147.216797,95.5 Z M130.957031,40.9101562 L131.884766,40.9101562 L139.453125,67.1308594 L123.242188,67.1308594 L130.957031,40.9101562 Z M175.488281,75.4316406 C175.78125,89.0058594 187.011719,97.4042969 204.833984,97.4042969 C223.291016,97.4042969 234.521484,88.5175781 234.521484,73.8203125 C234.521484,62.6386719 228.271484,56.3398438 214.355469,53.6542969 L205.273438,51.8964844 C197.851562,50.4316406 194.726562,48.1855469 194.726562,44.328125 C194.726562,39.640625 198.876953,36.6621094 205.175781,36.6621094 C211.474609,36.6621094 216.210938,40.1289062 216.601562,45.109375 L233.154297,45.109375 C232.861328,32.0722656 221.435547,23.1367188 204.931641,23.1367188 C187.939453,23.1367188 176.904297,32.1699219 176.904297,45.9394531 C176.904297,57.0234375 183.544922,64.0546875 196.435547,66.4960938 L205.712891,68.3515625 C213.769531,69.9628906 216.845703,72.0625 216.845703,75.96875 C216.845703,80.6074219 212.255859,83.8300781 205.566406,83.8300781 C198.144531,83.8300781 193.017578,80.5585938 192.578125,75.4316406 L175.488281,75.4316406 Z M244.970703,75.4316406 C245.263672,89.0058594 256.494141,97.4042969 274.316406,97.4042969 C292.773438,97.4042969 304.003906,88.5175781 304.003906,73.8203125 C304.003906,62.6386719 297.753906,56.3398438 283.837891,53.6542969 L274.755859,51.8964844 C267.333984,50.4316406 264.208984,48.1855469 264.208984,44.328125 C264.208984,39.640625 268.359375,36.6621094 274.658203,36.6621094 C280.957031,36.6621094 285.693359,40.1289062 286.083984,45.109375 L302.636719,45.109375 C302.34375,32.0722656 290.917969,23.1367188 274.414062,23.1367188 C257.421875,23.1367188 246.386719,32.1699219 246.386719,45.9394531 C246.386719,57.0234375 253.027344,64.0546875 265.917969,66.4960938 L275.195312,68.3515625 L276.01107,68.5200475 C283.460445,70.1098395 286.328125,72.1971983 286.328125,75.96875 C286.328125,80.6074219 281.738281,83.8300781 275.048828,83.8300781 C267.626953,83.8300781 262.5,80.5585938 262.060547,75.4316406 L244.970703,75.4316406 Z M335.449219,95.5 L335.449219,25.0410156 L317.529297,25.0410156 L317.529297,95.5 L335.449219,95.5 Z M392.675781,95.5 L414.794922,25.0410156 L395.458984,25.0410156 L382.324219,76.8964844 L381.396484,76.8964844 L367.871094,25.0410156 L347.314453,25.0410156 L370.019531,95.5 L392.675781,95.5 Z M474.951172,81.0957031 L474.951172,95.5 L426.660156,95.5 L426.660156,25.0410156 L474.951172,25.0410156 L474.951172,39.4453125 L444.580078,39.4453125 L444.580078,53.5078125 L473.144531,53.5078125 L473.144531,66.6914062 L444.580078,66.6914062 L444.580078,81.0957031 L474.951172,81.0957031 Z" id="MASSIVE" fill="#000000" fill-rule="nonzero"></path>
            <path d="M85.6445312,190.5 L85.6445312,120.041016 L64.5019531,120.041016 L47.4609375,163.107422 L46.5332031,163.107422 L29.4433594,120.041016 L8.30078125,120.041016 L8.30078125,190.5 L24.8535156,190.5 L24.8535156,146.017578 L25.7324219,146.017578 L41.4550781,185.080078 L52.5390625,185.080078 L68.2128906,146.017578 L69.0917969,146.017578 L69.0917969,190.5 L85.6445312,190.5 Z M150.537109,176.095703 L120.166016,176.095703 L120.166016,161.691406 L148.730469,161.691406 L148.730469,148.507812 L120.166016,148.507812 L120.166016,134.445312 L150.537109,134.445312 L150.537109,120.041016 L102.246094,120.041016 L102.246094,190.5 L150.537109,190.5 L150.537109,176.095703 Z M165.820312,119.992188 L165.820312,190.5 L195.410156,190.5 C216.601562,190.5 228.369141,177.707031 228.369141,154.5625 C228.369141,132.541016 216.40625,119.992188 195.410156,119.992188 L165.820312,119.992188 Z M183.740234,134.396484 L192.1875,134.396484 C203.466797,134.396484 210.107422,141.769531 210.107422,154.904297 C210.107422,168.869141 203.808594,176.095703 192.1875,176.095703 L183.740234,176.095703 L183.740234,134.396484 Z M259.570312,190.5 L259.570312,120.041016 L241.650391,120.041016 L241.650391,190.5 L259.570312,190.5 Z M321.142578,190.5 L340.673828,190.5 L316.992188,120.041016 L295.068359,120.041016 L271.435547,190.5 L289.208984,190.5 L293.75,175.021484 L316.748047,175.021484 L321.142578,190.5 Z M304.882812,135.910156 L305.810547,135.910156 L313.378906,162.130859 L297.167969,162.130859 L304.882812,135.910156 Z" id="MEDIA" fill="#000000" fill-rule="nonzero"></path>
            <rect id="Rectangle" fill="#012DE2" x="351" y="120" width="125" height="14"></rect>
        </g>
    </g>
</svg>